<svg width="175" height="64" viewBox="0 0 175 64" fill="none" xmlns="http://www.w3.org/2000/svg">
<path d="M6.62074 25.5504H8.38626V39.5641C8.38626 41.3407 8.81661 42.2235 9.6773 42.2235C9.88021 42.2127 10.0758 42.1442 10.241 42.0259C10.4063 41.9076 10.5342 41.7445 10.6097 41.5559C10.8803 40.9672 11.0034 40.3214 10.9683 39.6745V25.5504H12.7338V39.4152C12.7338 41.0483 12.4304 42.2989 11.8235 43.1669C11.603 43.5455 11.2909 43.8626 10.9159 44.0892C10.5409 44.3157 10.115 44.4444 9.6773 44.4635C9.22265 44.454 8.7787 44.3238 8.39092 44.0863C8.00313 43.8487 7.68545 43.5124 7.4704 43.1117C6.85542 42.0482 6.5604 40.8298 6.62074 39.6028V25.5504Z" fill="#171717"/>
<path d="M15.051 44.2152V25.5504H16.811V41.9807H20.1986V44.1876L15.051 44.2152Z" fill="#171717"/>
<path d="M22.5766 44.2152V27.7848H20.469V25.5779H26.4442V27.7848H24.3421V44.2152H22.5766Z" fill="#171717"/>
<path d="M27.8401 44.2152V25.5504H29.6001V44.2152H27.8401Z" fill="#171717"/>
<path d="M35.4538 32.3973L37.5173 25.5504H39.029V44.2152H37.28L37.3904 30.72L37.3407 30.6648L35.6138 36.8055H35.3104L33.5725 30.6648L33.5173 30.72L33.6552 44.2152H31.9062V25.5504H33.418L35.4538 32.3973Z" fill="#171717"/>
<path d="M40.2759 44.2152L42.8635 25.4565H44.6897L47.2552 44.2152H45.5779L45.0869 40.0828H42.5379L41.9862 44.2152H40.2759ZM42.7807 37.8427H44.7559L43.8124 30.0248H43.7628L42.7807 37.8427Z" fill="#171717"/>
<path d="M49.2248 44.2152V27.7848H47.1172V25.5779H53.0924V27.7848H50.9848V44.2152H49.2248Z" fill="#171717"/>
<path d="M54.5269 44.2152V25.5504H59.4041V27.7573H56.2758V33.3683H59.1338V35.6083H56.2758V41.9807H59.5862V44.1876L54.5269 44.2152Z" fill="#171717"/>
<path d="M74.0745 40.8883V43.4096C73.8195 43.7222 73.5015 43.9776 73.1412 44.1591C72.7809 44.3407 72.3865 44.4444 71.9835 44.4634C70.8083 44.4634 69.898 43.6414 69.258 42.0083C68.618 40.3752 68.2925 38.0303 68.2925 34.9903C68.2925 31.9503 68.618 29.5779 69.2635 27.8676C69.909 26.1572 70.8249 25.3021 72.0221 25.3021C72.7584 25.3727 73.4405 25.7196 73.9311 26.2731V28.6896C73.3463 27.9172 72.7559 27.531 72.1711 27.531C71.4594 27.531 70.9463 28.0828 70.6318 29.2248C70.3173 30.3669 70.1573 32.2372 70.1573 34.8745C70.0814 36.7641 70.237 38.6558 70.6208 40.5076C70.9408 41.6496 71.4704 42.2234 72.2152 42.2234C72.7228 42.2234 73.3408 41.7765 74.0745 40.8883Z" fill="#171717"/>
<path d="M74.6096 44.2152L77.1917 25.4565H79.0289L81.5944 44.2152H79.8896L79.3986 40.0828H76.8551L76.3034 44.2152H74.6096ZM77.1145 37.8427H79.0896L78.1241 30.0248H78.0744L77.1145 37.8427Z" fill="#171717"/>
<path d="M82.9463 44.2152V25.5503H84.4139C84.9475 25.5264 85.4779 25.6446 85.9509 25.8927C86.424 26.1409 86.8227 26.5101 87.1063 26.9627C87.7746 28.0982 88.0967 29.404 88.0332 30.72C88.0332 32.4965 87.5587 33.8262 86.6097 34.72C87.3435 35.4262 87.967 37.3186 88.4801 40.3807L89.1146 44.2427H87.2663L86.7146 41.0262C86.526 39.5612 86.1952 38.1181 85.727 36.7172C85.4456 36.1048 85.098 35.8289 84.6842 35.8952V44.2152H82.9463ZM84.7118 33.6552H84.789C85.7785 33.6552 86.2732 32.7135 86.2732 30.8303C86.2732 28.8294 85.7527 27.8234 84.7118 27.8124V33.6552Z" fill="#171717"/>
<path d="M102.51 40.8883V43.4096C102.254 43.7218 101.935 43.9769 101.574 44.1584C101.212 44.3398 100.817 44.4438 100.414 44.4634C99.2386 44.4634 98.3283 43.6414 97.6883 42.0083C97.0483 40.3752 96.7283 38.0303 96.7283 34.9903C96.7283 31.9503 97.0483 29.5779 97.6938 27.8676C98.3393 26.1572 99.2552 25.3021 100.452 25.3021C101.184 25.3775 101.861 25.7238 102.35 26.2731V28.6896C101.76 27.9172 101.17 27.531 100.585 27.531C99.8786 27.531 99.3655 28.0828 99.0455 29.2248C98.6603 31.082 98.501 32.979 98.571 34.8745C98.5014 36.7611 98.6626 38.6491 99.051 40.4965C99.371 41.6386 99.9007 42.2124 100.646 42.2124C101.153 42.2234 101.771 41.7765 102.51 40.8883Z" fill="#171717"/>
<path d="M103.04 44.2152L105.628 25.4565H107.459L110.025 44.2152H108.32L107.829 40.0828H105.286L104.734 44.2152H103.04ZM105.545 37.8427H107.52L106.555 30.0248H106.483L105.545 37.8427Z" fill="#171717"/>
<path d="M111.376 44.2152V25.5503H112.85C113.383 25.5264 113.914 25.6446 114.387 25.8927C114.86 26.1409 115.258 26.5101 115.542 26.9627C116.21 28.0982 116.532 29.404 116.469 30.72C116.469 32.4965 115.994 33.8262 115.045 34.72C115.779 35.4262 116.403 37.3186 116.921 40.3807L117.55 44.2427H115.702L115.15 41.0262C114.981 39.5529 114.665 38.1002 114.207 36.6896C113.925 36.0772 113.578 35.8014 113.164 35.8676V44.2152H111.376ZM113.142 33.6552H113.219C114.212 33.6552 114.703 32.7117 114.703 30.8303C114.703 28.8294 114.183 27.8234 113.142 27.8124V33.6552Z" fill="#171717"/>
<path d="M118.853 44.2152V25.5504H123.735V27.7573H120.618V33.3683H123.476V35.6083H120.618V41.9807H123.928V44.1876L118.853 44.2152Z" fill="#171717"/>
<path d="M139.586 34.2069V43.3545C138.944 44.0103 138.08 44.4036 137.164 44.458C135.774 44.458 134.67 43.6157 133.854 41.9311C133.037 40.2465 132.633 37.9053 132.64 34.9076C132.64 31.9651 133.032 29.6239 133.815 27.8842C134.599 26.1628 135.641 25.2966 136.949 25.2966C137.74 25.2966 138.615 25.7435 139.575 26.6373V29.2028C138.593 27.9853 137.745 27.3747 137.032 27.3711C135.285 27.3711 134.409 29.8777 134.406 34.8911C134.406 39.772 135.325 42.2143 137.164 42.2179C137.375 42.2088 137.584 42.1773 137.788 42.1242V36.4138H136.574V34.2069H139.586Z" fill="#171717"/>
<path d="M141.633 25.5504H143.399V39.5641C143.399 41.3407 143.829 42.2235 144.69 42.2235C144.893 42.2127 145.088 42.1442 145.253 42.0259C145.419 41.9076 145.547 41.7445 145.622 41.5559C145.893 40.9672 146.016 40.3214 145.981 39.6745V25.5504H147.746V39.4152C147.746 41.0483 147.443 42.2989 146.836 43.1669C146.615 43.5448 146.302 43.8614 145.927 44.0879C145.553 44.3143 145.127 44.4434 144.69 44.4635C144.235 44.4551 143.79 44.3254 143.402 44.0878C143.014 43.8501 142.697 43.5132 142.483 43.1117C141.86 42.0505 141.557 40.832 141.611 39.6028L141.633 25.5504Z" fill="#171717"/>
<path d="M150.003 44.2152V25.5504H151.763V44.2152H150.003Z" fill="#171717"/>
<path d="M154.052 44.2152V25.5504H155.995C159.128 25.5504 160.695 28.6529 160.695 34.8579C160.695 37.9586 160.305 40.2943 159.526 41.8648C158.746 43.4354 157.652 44.2189 156.243 44.2152H154.052ZM155.812 42.0083H156.072C156.57 42.0135 157.057 41.8541 157.456 41.5549C157.855 41.2557 158.144 40.8333 158.279 40.3531C158.709 39.2497 158.924 37.4547 158.924 34.9683C158.924 32.3605 158.72 30.5214 158.312 29.451C158.187 28.9655 157.9 28.537 157.499 28.2361C157.098 27.9353 156.606 27.78 156.105 27.7959H155.801L155.812 42.0083Z" fill="#171717"/>
<path d="M162.67 44.2152V25.5504H167.548V27.7573H164.414V33.3683H167.272V35.6083H164.414V41.9807H167.724V44.1876L162.67 44.2152Z" fill="#171717"/>
<path d="M68.7835 12.6896H4.41382V14.5269H68.7835V12.6896Z" fill="#F18C72"/>
<path d="M169.931 12.6896H105.561V14.5269H169.931V12.6896Z" fill="#F18C72"/>
<path fill-rule="evenodd" clip-rule="evenodd" d="M97.2358 11.9007V22.8028H94.6869V21.1476H79.6579V22.8028H77.1089V11.9007H76.2317V10.2455H78.3724L79.5696 6.52692C79.9227 5.40692 80.5131 4.41382 81.6551 4.41382H93.131C94.2786 4.41382 94.9407 5.39037 95.222 6.50485L96.1434 10.2235H98.1131V11.8786L97.2358 11.9007ZM83.3545 17.7545H90.8855V19.5311H83.3545V17.7545ZM77.9641 13.6221C79.8786 13.6828 81.0538 14.4828 81.3572 16.16H77.9641V13.6221ZM96.1434 13.6221C94.2234 13.6828 93.0482 14.4828 92.7503 16.16H96.1434V13.6221ZM79.2882 10.2235H95.0565L94.3834 7.10623C94.1958 6.25106 93.6607 5.51175 92.7889 5.51175H81.8813C81.0096 5.51175 80.5572 6.26761 80.2924 7.10623L79.2882 10.2235Z" fill="#F18C72"/>
<path d="M6.62061 56.6179V50.3007H8.68957C9.01255 50.2833 9.33524 50.3399 9.63302 50.4662C9.87014 50.6008 10.0534 50.8132 10.1516 51.0676C10.2847 51.3679 10.3506 51.6936 10.3447 52.0221C10.3586 52.4249 10.2468 52.8221 10.0247 53.1586C9.90679 53.3176 9.75811 53.4513 9.58752 53.5518C9.41692 53.6522 9.2279 53.7174 9.03164 53.7434C9.17307 53.827 9.29981 53.9333 9.40681 54.0579C9.61309 54.3164 9.78896 54.5978 9.93095 54.8965L10.742 56.6179H9.93095L9.31302 55.3048C9.13647 54.9241 8.9875 54.6317 8.87164 54.4331C8.78615 54.2781 8.68039 54.1353 8.55716 54.0083C8.47376 53.9371 8.37853 53.881 8.27578 53.8427C8.16376 53.8164 8.0487 53.8052 7.93371 53.8096H7.21647V56.6179H6.62061ZM7.23854 53.0869H8.56267C8.78918 53.0971 9.01518 53.0576 9.22474 52.971C9.3851 52.8882 9.51324 52.7542 9.58888 52.5903C9.66889 52.4174 9.71031 52.2291 9.71026 52.0386C9.72067 51.7753 9.63652 51.517 9.47302 51.3103C9.37532 51.209 9.25632 51.1308 9.12464 51.0811C8.99295 51.0315 8.85188 51.0118 8.71164 51.0234H7.23854V53.0869Z" fill="#535252"/>
<path d="M12.6289 56.6179V50.3007H15.9999V51.0455H13.2413V52.9655H15.8179V53.7048H13.2413V55.8565H16.0993V56.6013L12.6289 56.6179Z" fill="#535252"/>
<path d="M19.5917 56.6179L17.7876 50.3007H18.4552L19.6635 54.891C19.7628 55.2551 19.8455 55.6027 19.9117 55.9227C19.9835 55.5807 20.0662 55.2331 20.16 54.891L21.4179 50.3007H22.069L20.2483 56.6179H19.5917Z" fill="#535252"/>
<path d="M30.0744 50.3007H30.6868V53.9476C30.7015 54.4579 30.6496 54.9679 30.5324 55.4648C30.4405 55.8153 30.2488 56.1315 29.9806 56.3751C29.6666 56.62 29.2748 56.7434 28.8772 56.7227C28.4969 56.7404 28.1213 56.6339 27.8068 56.4193C27.5178 56.195 27.3088 55.8835 27.211 55.531C27.0782 55.0141 27.0188 54.481 27.0344 53.9476V50.3007H27.6413V53.9476C27.6279 54.3533 27.665 54.7592 27.7517 55.1558C27.8116 55.3943 27.9495 55.606 28.1434 55.7572C28.3344 55.9039 28.5703 55.9799 28.811 55.9724C28.995 55.9894 29.1804 55.9599 29.35 55.8867C29.5197 55.8134 29.6682 55.6987 29.782 55.5531C30.0224 55.054 30.1234 54.4993 30.0744 53.9476V50.3007Z" fill="#535252"/>
<path d="M33.0208 56.6179V50.3007H34.7587C34.9975 50.2922 35.2365 50.3126 35.4704 50.3614C35.6767 50.4091 35.8669 50.5099 36.0221 50.6538C36.1989 50.8244 36.3331 51.0342 36.4139 51.2662C36.5096 51.5429 36.5562 51.8342 36.5518 52.1269C36.5786 52.6155 36.4554 53.1006 36.1987 53.5172C36.0354 53.7168 35.8244 53.872 35.5852 53.9684C35.3461 54.0649 35.0865 54.0994 34.8304 54.069H33.6552V56.64L33.0208 56.6179ZM33.6332 53.3076H34.8414C34.9967 53.3235 35.1536 53.3044 35.3006 53.2519C35.4476 53.1994 35.581 53.1148 35.6911 53.0041C35.8706 52.7607 35.9585 52.4618 35.9394 52.16C35.9454 51.9233 35.8943 51.6886 35.7904 51.4759C35.7127 51.3085 35.5748 51.1765 35.4042 51.1062C35.2149 51.0591 35.0197 51.0405 34.8249 51.051H33.6552L33.6332 53.3076Z" fill="#535252"/>
<path d="M42.8523 56.6179V53.942L41.0537 50.3007H41.8041L42.7254 52.2041C42.891 52.5572 43.051 52.9158 43.1944 53.2745C43.3378 52.9434 43.5034 52.5682 43.7075 52.171L44.6068 50.3172H45.3241L43.4647 53.9586V56.6345L42.8523 56.6179Z" fill="#535252"/>
<path d="M46.9958 53.5172C46.9448 52.6523 47.1625 51.7928 47.6193 51.0565C47.7934 50.7909 48.032 50.5737 48.3127 50.4251C48.5934 50.2765 48.9072 50.2015 49.2248 50.2069C49.6498 50.2069 50.0615 50.3552 50.3889 50.6262C50.7539 50.9343 51.0269 51.3371 51.1779 51.7903C51.5457 52.9009 51.5457 54.1004 51.1779 55.211C51.022 55.6628 50.7407 56.0609 50.3669 56.3586C50.0407 56.6087 49.6413 56.7444 49.2303 56.7448C48.7997 56.7467 48.3827 56.594 48.0551 56.3145C47.6928 56.0005 47.4221 55.5945 47.2717 55.1393C47.0844 54.6192 46.991 54.07 46.9958 53.5172ZM47.6303 53.5172C47.5954 54.1505 47.7531 54.7795 48.0827 55.3214C48.1984 55.5219 48.3649 55.6884 48.5654 55.8041C48.7659 55.9199 48.9933 55.9809 49.2248 55.9809C49.4563 55.9809 49.6837 55.9199 49.8842 55.8041C50.0847 55.6884 50.2511 55.5219 50.3669 55.3214C50.6976 54.7518 50.853 54.0974 50.8138 53.44C50.8215 52.9838 50.7563 52.5294 50.6206 52.0938C50.5234 51.7504 50.3323 51.4408 50.0689 51.2C49.8411 50.997 49.5465 50.8851 49.2413 50.8855C49.0228 50.8936 48.8092 50.9526 48.6176 51.058C48.426 51.1634 48.2617 51.3122 48.1379 51.4924C47.7533 52.1066 47.5754 52.8277 47.6303 53.5503V53.5172Z" fill="#535252"/>
<path d="M56.6069 50.3007H57.2248V53.9476C57.238 54.4581 57.1843 54.9682 57.0648 55.4648C56.973 55.8153 56.7813 56.1315 56.5131 56.3751C56.1991 56.62 55.8073 56.7434 55.4097 56.7227C55.0295 56.7396 54.6541 56.6331 54.3393 56.4193C54.0503 56.195 53.8413 55.8835 53.7435 55.531C53.6107 55.0141 53.5512 54.481 53.5669 53.9476V50.3007H54.1848V53.9476C54.1714 54.3533 54.2085 54.7592 54.2952 55.1558C54.3551 55.3943 54.493 55.606 54.6869 55.7572C54.88 55.9039 55.1176 55.9798 55.36 55.9724C55.5431 55.9884 55.7274 55.9585 55.896 55.8853C56.0646 55.8121 56.2123 55.6979 56.3255 55.5531C56.5659 55.054 56.6669 54.4993 56.6179 53.9476L56.6069 50.3007Z" fill="#535252"/>
<path d="M59.5862 56.6179V50.3007H61.6551C61.9781 50.2833 62.3008 50.3399 62.5986 50.4662C62.8357 50.6008 63.019 50.8132 63.1172 51.0676C63.2522 51.3675 63.32 51.6932 63.3158 52.0221C63.3277 52.4255 63.214 52.8226 62.9903 53.1586C62.8734 53.3174 62.7257 53.4511 62.5561 53.5516C62.3864 53.652 62.1982 53.7173 62.0027 53.7434C62.1325 53.834 62.2479 53.9438 62.3448 54.069C62.5492 54.3267 62.7215 54.6083 62.8579 54.9076L63.6689 56.629H62.8965L62.2786 55.3159C62.102 54.9352 61.9531 54.6427 61.8372 54.4441C61.7558 54.2866 61.6496 54.1431 61.5227 54.0193C61.4393 53.9481 61.3441 53.8921 61.2414 53.8538C61.1294 53.8271 61.0143 53.8159 60.8993 53.8207H60.182V56.629L59.5862 56.6179ZM60.2041 53.0869H61.5282C61.7548 53.0971 61.9808 53.0576 62.1903 52.971C62.3507 52.8882 62.4788 52.7542 62.5545 52.5903C62.6345 52.4174 62.6759 52.2291 62.6758 52.0386C62.6889 51.7716 62.6046 51.5089 62.4386 51.2993C62.3409 51.198 62.2219 51.1197 62.0902 51.0701C61.9585 51.0205 61.8175 51.0008 61.6772 51.0124H60.2041V53.0869Z" fill="#535252"/>
<path d="M71.989 54.4L72.6069 54.6152C72.5249 55.1929 72.2821 55.7358 71.9062 56.1821C71.7539 56.3584 71.5648 56.4991 71.3522 56.5944C71.1397 56.6897 70.9088 56.7373 70.6759 56.7338C70.2303 56.7535 69.7934 56.6059 69.451 56.32C69.1064 55.9923 68.8583 55.5763 68.7338 55.1173C68.5653 54.5686 68.4816 53.9974 68.4855 53.4235C68.4726 52.8373 68.568 52.2537 68.7669 51.7021C68.9175 51.2656 69.1916 50.8823 69.5559 50.5986C69.8806 50.3505 70.2782 50.2167 70.6869 50.218C70.9057 50.2133 71.1231 50.254 71.3254 50.3376C71.5276 50.4211 71.7104 50.5457 71.8621 50.7035C72.2112 51.0811 72.4414 51.5531 72.5241 52.0607L71.9173 52.2538C71.8546 51.8829 71.6925 51.5358 71.4483 51.2497C71.3483 51.1467 71.228 51.0655 71.0951 51.0114C70.9621 50.9573 70.8194 50.9313 70.6759 50.9352C70.5104 50.9302 70.3455 50.9584 70.1911 51.0181C70.0366 51.0778 69.8957 51.1678 69.7766 51.2828C69.5217 51.5409 69.3456 51.8662 69.269 52.2207C69.1689 52.6175 69.1189 53.0253 69.12 53.4345C69.1131 53.9094 69.1725 54.3829 69.2966 54.8414C69.3828 55.1911 69.5756 55.5054 69.8483 55.7407C70.0704 55.9294 70.3513 56.0348 70.6428 56.0386C70.8104 56.0417 70.9765 56.0065 71.1285 55.9358C71.2805 55.865 71.4144 55.7606 71.52 55.6304C71.7912 55.2738 71.954 54.8466 71.989 54.4Z" fill="#535252"/>
<path d="M74.1572 56.6179L75.9448 50.3007H76.6124L78.5158 56.6179H77.7931L77.2414 54.7034H75.2883L74.7807 56.6179H74.1572ZM75.5034 54.0248H77.0814L76.5958 52.2703C76.445 51.7407 76.3347 51.3048 76.2648 50.9627C76.204 51.3701 76.1193 51.7736 76.011 52.171L75.5034 54.0248Z" fill="#535252"/>
<path d="M80.3201 56.618V50.3007H82.389C82.7138 50.284 83.0381 50.3406 83.338 50.4662C83.5722 50.6028 83.7531 50.8148 83.8511 51.0676C83.9861 51.3675 84.0539 51.6933 84.0497 52.0221C84.0616 52.4255 83.9479 52.8227 83.7242 53.1586C83.6098 53.315 83.4656 53.4472 83.2999 53.5476C83.1342 53.648 82.9503 53.7145 82.7587 53.7435C82.8975 53.8285 83.0222 53.9346 83.1283 54.058C83.3327 54.3157 83.505 54.5973 83.6414 54.8966L84.4525 56.618H83.6746L83.0566 55.3048C82.8801 54.9242 82.7311 54.6317 82.6152 54.4331C82.5338 54.2756 82.4277 54.1321 82.3008 54.0083C82.2174 53.9371 82.1221 53.8811 82.0194 53.8428C81.9074 53.8161 81.7923 53.8049 81.6773 53.8097H80.9601V56.618H80.3201ZM80.938 53.0869H82.2621C82.4886 53.0972 82.7146 53.0576 82.9242 52.9711C83.0846 52.8882 83.2127 52.7542 83.2883 52.5904C83.3684 52.4174 83.4098 52.2292 83.4097 52.0386C83.4228 51.7716 83.3385 51.5089 83.1725 51.2993C83.0748 51.198 82.9558 51.1198 82.8241 51.0701C82.6924 51.0205 82.5513 51.0008 82.4111 51.0124H80.938V53.0869Z" fill="#535252"/>
<path d="M92.7505 54.4L93.3684 54.6152C93.289 55.1936 93.0459 55.7373 92.6677 56.1821C92.5154 56.3584 92.3263 56.4991 92.1137 56.5944C91.9011 56.6897 91.6703 56.7373 91.4373 56.7338C90.9917 56.7535 90.5549 56.6059 90.2125 56.32C89.8679 55.9923 89.6198 55.5763 89.4953 55.1173C89.3268 54.5686 89.2431 53.9974 89.247 53.4235C89.2341 52.8373 89.3295 52.2537 89.5284 51.7021C89.6789 51.2656 89.953 50.8823 90.3173 50.5986C90.6421 50.3505 91.0397 50.2167 91.4484 50.218C91.6672 50.2133 91.8846 50.254 92.0868 50.3376C92.2891 50.4211 92.4719 50.5457 92.6236 50.7035C92.9722 51.0821 93.2041 51.5534 93.2911 52.0607L92.6787 52.2538C92.6161 51.8829 92.454 51.5358 92.2098 51.2497C92.1098 51.1467 91.9895 51.0655 91.8566 51.0114C91.7236 50.9573 91.5808 50.9313 91.4373 50.9352C91.2718 50.9302 91.107 50.9584 90.9526 51.0181C90.7981 51.0778 90.6572 51.1678 90.538 51.2828C90.2832 51.5409 90.1071 51.8662 90.0304 52.2207C89.9304 52.6175 89.8804 53.0253 89.8815 53.4345C89.8746 53.9094 89.934 54.3829 90.058 54.8414C90.1426 55.1918 90.3357 55.5066 90.6098 55.7407C90.8292 55.9303 91.1088 56.0359 91.3987 56.0386C91.5664 56.0417 91.7325 56.0065 91.8845 55.9358C92.0365 55.865 92.1704 55.7606 92.276 55.6304C92.5491 55.2744 92.7139 54.8472 92.7505 54.4Z" fill="#535252"/>
<path d="M94.8965 56.6179L96.6841 50.3007H97.3517L99.2551 56.6179H98.5544L98.0027 54.7034H96.0496L95.542 56.6179H94.8965ZM96.2427 54.0248H97.8206L97.3351 52.2703C97.1843 51.7407 97.074 51.3048 97.0041 50.9627C96.9433 51.3701 96.8585 51.7736 96.7503 52.171L96.2427 54.0248Z" fill="#535252"/>
<path d="M101.081 56.618V50.3007H103.172C103.497 50.284 103.821 50.3406 104.121 50.4662C104.355 50.6028 104.536 50.8148 104.634 51.0676C104.769 51.3675 104.837 51.6933 104.833 52.0221C104.845 52.4255 104.731 52.8227 104.508 53.1586C104.391 53.3175 104.243 53.4511 104.073 53.5516C103.904 53.6521 103.715 53.7173 103.52 53.7435C103.659 53.8285 103.783 53.9346 103.89 54.058C104.094 54.3157 104.266 54.5973 104.403 54.8966L105.214 56.618H104.436L103.818 55.3048C103.641 54.9242 103.492 54.6317 103.376 54.4331C103.295 54.2756 103.189 54.1321 103.062 54.0083C102.979 53.9371 102.883 53.8811 102.781 53.8428C102.669 53.8161 102.554 53.8049 102.439 53.8097H101.721V56.618H101.081ZM101.699 53.0869H103.023C103.25 53.0972 103.476 53.0576 103.685 52.9711C103.846 52.8882 103.974 52.7542 104.05 52.5904C104.13 52.4174 104.171 52.2292 104.171 52.0386C104.184 51.7716 104.1 51.5089 103.934 51.2993C103.836 51.198 103.717 51.1198 103.585 51.0701C103.454 51.0205 103.313 51.0008 103.172 51.0124H101.699V53.0869Z" fill="#535252"/>
<path d="M107.09 56.6179V50.3007H110.461V51.0455H107.702V52.9655H110.279V53.7048H107.702V55.8565H110.56V56.6013L107.09 56.6179Z" fill="#535252"/>
<path d="M115.807 56.6179V50.3007H116.414V53.4345L118.726 50.3007H119.564L117.606 52.8607L119.647 56.6179H118.836L117.181 53.4179L116.414 54.4276V56.6345L115.807 56.6179Z" fill="#535252"/>
<path d="M121.468 56.6179V50.3007H122.102L124.552 55.2662V50.3007H125.142V56.6179H124.508L122.063 51.6524V56.6179H121.468Z" fill="#535252"/>
<path d="M127.294 53.5172C127.243 52.6523 127.461 51.7928 127.917 51.0565C128.092 50.7909 128.33 50.5737 128.611 50.4251C128.892 50.2765 129.205 50.2015 129.523 50.2069C129.948 50.2069 130.36 50.3552 130.687 50.6262C131.052 50.9343 131.325 51.3371 131.476 51.7903C131.844 52.9009 131.844 54.1004 131.476 55.211C131.32 55.6628 131.039 56.0609 130.665 56.3586C130.34 56.6076 129.943 56.7432 129.534 56.7448C129.101 56.7475 128.682 56.5948 128.353 56.3145C127.991 56.0005 127.72 55.5945 127.57 55.1393C127.383 54.6192 127.289 54.07 127.294 53.5172ZM127.928 53.5172C127.893 54.1505 128.051 54.7795 128.381 55.3214C128.497 55.5219 128.663 55.6884 128.863 55.8041C129.064 55.9199 129.291 55.9809 129.523 55.9809C129.754 55.9809 129.982 55.9199 130.182 55.8041C130.383 55.6884 130.549 55.5219 130.665 55.3214C130.996 54.7518 131.151 54.0974 131.112 53.44C131.122 52.9837 131.057 52.5287 130.919 52.0938C130.821 51.7504 130.63 51.4408 130.367 51.2C130.139 50.997 129.845 50.8851 129.539 50.8855C129.316 50.8901 129.098 50.9476 128.901 51.053C128.704 51.1585 128.536 51.3091 128.408 51.4924C128.033 52.1098 127.865 52.8307 127.928 53.5503V53.5172Z" fill="#535252"/>
<path d="M134.659 56.6179L133.423 50.3007H134.069L134.775 54.4386C134.852 54.8745 134.919 55.3048 134.974 55.7351C135.09 55.0565 135.161 54.6703 135.183 54.5655L136.072 50.3007H136.827L137.467 53.5172C137.63 54.2567 137.751 55.0044 137.832 55.7572C137.894 55.3563 137.971 54.8984 138.063 54.3834L138.797 50.3227H139.415L138.135 56.64H137.545L136.557 51.8234C136.48 51.4207 136.43 51.1779 136.414 51.0841C136.364 51.371 136.32 51.6358 136.276 51.8234L135.288 56.64L134.659 56.6179Z" fill="#535252"/>
<path d="M141.269 56.6179V50.3007H141.881V55.8731H144.177V56.6179H141.269Z" fill="#535252"/>
<path d="M146.207 56.6179V50.3007H149.572V51.0455H146.814V52.9655H149.396V53.7048H146.814V55.8565H149.677V56.6013L146.207 56.6179Z" fill="#535252"/>
<path d="M151.862 56.6179V50.3007H153.462C153.743 50.2901 154.023 50.3198 154.295 50.3889C154.561 50.4722 154.798 50.6291 154.979 50.8414C155.244 51.1628 155.433 51.5401 155.531 51.9448C155.659 52.4345 155.72 52.9393 155.713 53.4455C155.718 53.8737 155.675 54.3011 155.586 54.72C155.521 55.0393 155.416 55.349 155.272 55.6414C155.161 55.8474 155.018 56.0338 154.847 56.1931C154.686 56.3342 154.498 56.4412 154.295 56.5076C154.053 56.5841 153.799 56.6213 153.545 56.6179H151.862ZM152.474 55.8731H153.473C153.719 55.883 153.965 55.8436 154.196 55.7572C154.361 55.6866 154.504 55.5722 154.61 55.4262C154.778 55.1862 154.895 54.9137 154.952 54.6262C155.043 54.2281 155.085 53.8206 155.079 53.4124C155.102 52.8918 155.019 52.3719 154.836 51.8841C154.726 51.5884 154.52 51.3379 154.251 51.1724C153.998 51.0731 153.727 51.0298 153.457 51.0455H152.474V55.8731Z" fill="#535252"/>
<path d="M160.044 54.1407V53.3958H162.019V55.7241C161.753 56.0223 161.435 56.2708 161.081 56.4579C160.775 56.6187 160.434 56.7039 160.088 56.7062C159.641 56.7094 159.204 56.5703 158.841 56.3089C158.449 56.0188 158.153 55.6169 157.992 55.1558C157.799 54.6254 157.702 54.065 157.705 53.5007C157.701 52.9147 157.798 52.3324 157.992 51.7793C158.136 51.3082 158.421 50.8925 158.808 50.5876C159.166 50.3293 159.598 50.1938 160.039 50.2014C160.358 50.1958 160.673 50.2718 160.955 50.422C161.22 50.5658 161.442 50.7795 161.595 51.04C161.768 51.364 161.888 51.7144 161.948 52.0772L161.396 52.2814C161.347 52.0181 161.259 51.7635 161.137 51.5255C161.03 51.3409 160.876 51.1884 160.69 51.0841C160.495 50.9736 160.274 50.9165 160.05 50.9186C159.795 50.9118 159.542 50.9707 159.316 51.0896C159.116 51.202 158.945 51.3609 158.819 51.5531C158.692 51.7457 158.594 51.9557 158.527 52.1765C158.405 52.5882 158.345 53.016 158.35 53.4455C158.339 53.9267 158.409 54.4063 158.56 54.8634C158.677 55.2034 158.897 55.4985 159.189 55.7076C159.445 55.8857 159.749 55.9819 160.061 55.9834C160.334 55.9803 160.601 55.9082 160.839 55.7738C161.058 55.6626 161.255 55.511 161.418 55.3269V54.1407H160.044Z" fill="#535252"/>
<path d="M164.243 56.6179V50.3007H167.608V51.0455H164.85V52.9655H167.432V53.7048H164.855V55.8565H167.724V56.6013L164.243 56.6179Z" fill="#535252"/>
</svg>
